<svg width="179" height="198" viewBox="0 0 179 198" fill="none" xmlns="http://www.w3.org/2000/svg">
<path d="M25.9288 152.292L75.6143 140.371L61.095 189.361L25.9288 152.292Z" fill="white"/>
<rect y="10.8066" width="169" height="155" rx="22" transform="rotate(-3.66624 0 10.8066)" fill="white"/>
<path d="M112.333 53L92.3333 73L99 79.6667L122.333 56.3333V53H112.333ZM82.3333 63C82.3333 55.6333 76.3667 49.6667 69 49.6667C61.6333 49.6667 55.6667 55.6333 55.6667 63C55.6667 70.3667 61.6333 76.3333 69 76.3333C70.9667 76.3333 72.8 75.9 74.4667 75.1333L82.3333 83L74.4667 90.8667C72.8 90.1 70.9667 89.6667 69 89.6667C61.6333 89.6667 55.6667 95.6333 55.6667 103C55.6667 110.367 61.6333 116.333 69 116.333C76.3667 116.333 82.3333 110.367 82.3333 103C82.3333 101.033 81.9 99.2 81.1333 97.5333L89 89.6667L112.333 113H122.333V109.667L81.1333 68.4667C81.9 66.8 82.3333 64.9667 82.3333 63ZM69 69.6667C65.3333 69.6667 62.3333 66.7 62.3333 63C62.3333 59.3 65.3333 56.3333 69 56.3333C72.6667 56.3333 75.6667 59.3 75.6667 63C75.6667 66.7 72.6667 69.6667 69 69.6667ZM69 109.667C65.3333 109.667 62.3333 106.7 62.3333 103C62.3333 99.3 65.3333 96.3333 69 96.3333C72.6667 96.3333 75.6667 99.3 75.6667 103C75.6667 106.7 72.6667 109.667 69 109.667ZM89 81.3333C89.9333 81.3333 90.6667 82.0667 90.6667 83C90.6667 83.9333 89.9333 84.6667 89 84.6667C88.0667 84.6667 87.3333 83.9333 87.3333 83C87.3333 82.0667 88.0667 81.3333 89 81.3333Z" fill="#323232"/>
</svg>
